<svg width="57" height="57" viewBox="0 0 57 57" fill="none" xmlns="http://www.w3.org/2000/svg">
<circle cx="28.5" cy="28.5" r="28.5" fill="white"/>
<circle cx="28.5" cy="28.5" r="22.5625" fill="#7100FF"/>
<path d="M18.1422 39.9832C17.6821 39.9511 17.2471 39.7799 16.8786 39.4853C16.7443 39.3783 16.5229 39.1443 16.4209 39.0031C16.2433 38.7589 16.1074 38.4382 16.0453 38.1237L16.0171 37.9761V34.4014V30.8268H20.8878H25.7586V32.0428C25.7586 33.3811 25.7594 33.3111 25.8474 33.497C25.9557 33.7266 26.1925 33.926 26.4459 34.0028C26.5217 34.0264 26.6365 34.0264 29.0157 34.0264H31.5051L31.6156 33.99C31.8888 33.898 32.1325 33.6539 32.2254 33.3774L32.2579 33.2854V32.0565V30.8273H37.129H42V34.4284V38.0295L41.9697 38.1622C41.8982 38.4694 41.792 38.7189 41.6328 38.953C41.4487 39.2219 41.2351 39.4335 40.9622 39.6148C40.6186 39.8433 40.2882 39.9528 39.8496 39.9841C39.6282 40.0055 18.3826 40.0055 18.1478 39.9832H18.1422ZM27.1467 31.7415V30.8273H29.0051H30.8637V31.7415V32.656H29.0051H27.1467V31.7415ZM16.0123 26.5569C16.0123 23.4185 16.0123 23.6344 16.0882 23.34C16.203 22.8922 16.5197 22.4326 16.9206 22.1275C17.2059 21.9107 17.4919 21.7796 17.8519 21.7002L18.0144 21.6638H20.7282H23.4418V20.3886V19.1134L23.4721 19.0065C23.6129 18.5156 24.0271 18.1286 24.5215 18.0235C24.6298 18 24.8234 18 29.0168 18H33.3984L33.5284 18.0364C34.0929 18.1904 34.4899 18.6389 34.5595 19.2001C34.5595 19.2707 34.5811 19.7585 34.5811 20.489V21.6653H37.2042C39.0158 21.6653 39.87 21.6653 39.9653 21.6867C40.4473 21.7381 40.905 21.9512 41.268 22.2944C41.6454 22.6513 41.8607 23.0267 41.9643 23.5079L41.9946 23.6534V26.5588V29.4641H28.9973H16V26.572L16.0123 26.5569ZM32.7156 20.7361V19.815H29.0051H25.2948V20.7361V21.657H29.0051H32.7156V20.7361Z" fill="white"/>
</svg>
