<svg width="43" height="42" viewBox="0 0 43 42" fill="none" xmlns="http://www.w3.org/2000/svg">
<ellipse cx="21.5" cy="21" rx="21.5" ry="21" fill="#F1F2F2"/>
<path d="M22.1333 31.16C27.7298 31.16 32.2667 26.647 32.2667 21.08C32.2667 15.513 27.7298 11 22.1333 11C16.5368 11 12 15.513 12 21.08C12 26.647 16.5368 31.16 22.1333 31.16Z" fill="#3E4347"/>
<path d="M25.4583 14.1899H23.2365C21.9181 14.1899 20.4516 14.7447 20.4516 16.6567C20.458 17.3229 20.4516 17.961 20.4516 18.679H18.9263V21.1073H20.4988V28.0978H23.3883V21.0612H25.2955L25.468 18.6722H23.3385C23.3385 18.6722 23.3433 17.6095 23.3385 17.3009C23.3385 16.5453 24.1244 16.5886 24.1716 16.5886C24.5456 16.5886 25.2727 16.5897 25.4594 16.5886V14.1899H25.4583Z" fill="white"/>
</svg>
