<svg width="47" height="41" viewBox="0 0 47 41" fill="none" xmlns="http://www.w3.org/2000/svg">
<ellipse cx="23.7965" cy="20.3163" rx="23.0719" ry="20.1709" fill="white"/>
<path d="M23.7965 30.8051C29.6776 30.8051 34.4451 26.4703 34.4451 21.1231C34.4451 15.7758 29.6776 11.441 23.7965 11.441C17.9155 11.441 13.1479 15.7758 13.1479 21.1231C13.1479 26.4703 17.9155 30.8051 23.7965 30.8051Z" fill="#3E4347"/>
<path d="M27.2907 14.5049H24.9559C23.5704 14.5049 22.0294 15.0378 22.0294 16.8743C22.0361 17.5143 22.0294 18.1271 22.0294 18.8168H20.4265V21.1492H22.079V27.8637H25.1154V21.1049H27.1196L27.3009 18.8103H25.0631C25.0631 18.8103 25.0681 17.7895 25.0631 17.4931C25.0631 16.7674 25.8889 16.8089 25.9386 16.8089C26.3316 16.8089 27.0957 16.81 27.2918 16.8089V14.5049H27.2907Z" fill="white"/>
</svg>
