<svg width="22" height="22" viewBox="0 0 22 22" fill="none" xmlns="http://www.w3.org/2000/svg">
<path d="M11 21.6412C17.0751 21.6412 22 16.7966 22 10.8206C22 4.84454 17.0751 0 11 0C4.92487 0 0 4.84454 0 10.8206C0 16.7966 4.92487 21.6412 11 21.6412Z" fill="#3E4347"/>
<path d="M17.7379 7.77635C17.2665 7.98197 16.7594 8.12104 16.2276 8.18315C16.7706 7.86315 17.1873 7.35682 17.3839 6.75251C16.8759 7.04897 16.3129 7.26404 15.7143 7.37997C15.2346 6.8775 14.5513 6.56348 13.7946 6.56348C12.3428 6.56348 11.1653 7.72176 11.1653 9.1499C11.1653 9.35262 11.1886 9.54995 11.2337 9.73936C9.04854 9.63154 7.11102 8.60191 5.81411 7.03663C5.58783 7.41854 5.45802 7.86315 5.45802 8.33707C5.45802 9.23419 5.92255 10.0262 6.62767 10.4899C6.19687 10.4766 5.79117 10.3603 5.43684 10.166C5.43665 10.177 5.43665 10.188 5.43665 10.1988C5.43665 11.452 6.34335 12.4973 7.54594 12.7347C7.32554 12.7941 7.09278 12.8256 6.85336 12.8256C6.68355 12.8256 6.51904 12.8095 6.35864 12.7795C6.69316 13.8068 7.66398 14.5546 8.81481 14.5756C7.91478 15.2694 6.7812 15.6828 5.549 15.6828C5.33723 15.6828 5.12742 15.6706 4.92212 15.6465C6.0851 16.3807 7.4675 16.8087 8.95226 16.8087C13.7885 16.8087 16.4333 12.8676 16.4333 9.44945C16.4333 9.33739 16.4308 9.2257 16.4257 9.11499C16.9398 8.75043 17.3855 8.29502 17.7379 7.77635Z" fill="#F1F2F2"/>
</svg>
