<svg width="22" height="22" viewBox="0 0 22 22" fill="none" xmlns="http://www.w3.org/2000/svg">
<path d="M11 21.6412C17.0751 21.6412 22 16.7966 22 10.8206C22 4.84454 17.0751 0 11 0C4.92487 0 0 4.84454 0 10.8206C0 16.7966 4.92487 21.6412 11 21.6412Z" fill="#3E4347"/>
<path d="M11.8879 14.4899C11.0563 14.4266 10.7068 14.021 10.0547 13.6315C9.69622 15.4815 9.25816 17.2549 7.96067 18.1814C7.55967 15.3853 8.54853 13.2851 9.00776 11.0559C8.22499 9.75973 9.10188 7.15074 10.7529 7.79363C12.785 8.58408 8.99364 12.6133 11.5388 13.1165C14.196 13.642 15.2807 8.58119 13.6328 6.93509C11.252 4.55853 6.70258 6.88108 7.26201 10.2832C7.39829 11.115 8.27205 11.3674 7.61105 12.5151C6.08727 12.1832 5.63274 11.001 5.69117 9.42488C5.78549 6.84501 8.04773 5.03862 10.3168 4.78864C13.1865 4.47269 15.88 5.82522 16.2517 8.4805C16.67 11.4774 14.9562 14.7229 11.8879 14.4899Z" fill="#F1F2F2"/>
</svg>
