<svg width="22" height="22" viewBox="0 0 22 22" fill="none" xmlns="http://www.w3.org/2000/svg">
<path d="M11 21.6412C17.0751 21.6412 22 16.7966 22 10.8206C22 4.84454 17.0751 0 11 0C4.92487 0 0 4.84454 0 10.8206C0 16.7966 4.92487 21.6412 11 21.6412Z" fill="#3E4347"/>
<path d="M14.6097 3.42432H12.1979C10.7667 3.42432 9.17472 4.01985 9.17472 6.07233C9.18171 6.78749 9.17472 7.47241 9.17472 8.24324H7.51898V10.8499H9.22596V18.354H12.3626V10.8004H14.4329L14.6202 8.23592H12.3086C12.3086 8.23592 12.3138 7.09515 12.3086 6.76387C12.3086 5.95277 13.1617 5.99922 13.213 5.99922C13.6189 5.99922 14.4082 6.00039 14.6109 5.99922V3.42432H14.6097Z" fill="white"/>
</svg>
