<svg width="47" height="41" viewBox="0 0 47 41" fill="none" xmlns="http://www.w3.org/2000/svg">
<ellipse cx="23.589" cy="20.3163" rx="23.0719" ry="20.1709" fill="white"/>
<rect x="16.0254" y="15.3243" width="14.7109" height="12.0813" fill="white"/>
<path d="M26.7626 16.5928H20.4151C19.4019 16.5928 18.5776 17.3422 18.5776 18.2634V24.0348C18.5776 24.956 19.4019 25.7057 20.4151 25.7057H26.7626C27.7758 25.7057 28.6003 24.9562 28.6003 24.0348V18.2634C28.6003 17.3422 27.776 16.5928 26.7626 16.5928ZM23.5888 24.1492C21.7697 24.1492 20.2896 22.8034 20.2896 21.1491C20.2896 19.4951 21.7697 18.1493 23.5888 18.1493C25.4083 18.1493 26.8884 19.4951 26.8884 21.1491C26.8884 22.8032 25.408 24.1492 23.5888 24.1492ZM26.9944 18.7696C26.5638 18.7696 26.2136 18.4511 26.2136 18.0598C26.2136 17.6684 26.5638 17.35 26.9944 17.35C27.4248 17.35 27.7751 17.6684 27.7751 18.0598C27.7751 18.4511 27.4248 18.7696 26.9944 18.7696Z" fill="#3E4347"/>
<path d="M23.5896 19.4172C22.5395 19.4172 21.6843 20.1943 21.6843 21.1491C21.6843 22.1044 22.5395 22.8817 23.5896 22.8817C24.6403 22.8817 25.4947 22.1044 25.4947 21.1491C25.4947 20.1945 24.64 19.4172 23.5896 19.4172Z" fill="#3E4347"/>
<path d="M23.589 11.441C17.7082 11.441 12.9404 15.7761 12.9404 21.1231C12.9404 26.4701 17.7082 30.8051 23.589 30.8051C29.4698 30.8051 34.2376 26.4701 34.2376 21.1231C34.2376 15.7761 29.4698 11.441 23.589 11.441ZM29.9944 24.0349C29.9944 25.6553 28.5449 26.9732 26.7628 26.9732H20.4152C18.6333 26.9732 17.1836 25.6553 17.1836 24.0349V18.2635C17.1836 16.6433 18.6333 15.3252 20.4152 15.3252H26.7628C28.5449 15.3252 29.9944 16.6433 29.9944 18.2635V24.0349Z" fill="#3E4347"/>
</svg>
