<svg width="43" height="42" viewBox="0 0 43 42" fill="none" xmlns="http://www.w3.org/2000/svg">
<ellipse cx="21.5" cy="21" rx="21.5" ry="21" fill="#F1F2F2"/>
<rect x="14.9355" y="15.0431" width="13.9991" height="12.5778" fill="white"/>
<path d="M25.1532 16.3633H19.1128C18.1487 16.3633 17.3643 17.1436 17.3643 18.1026V24.1112C17.3643 25.0703 18.1487 25.8508 19.1128 25.8508H25.1532C26.1173 25.8508 26.9019 25.0705 26.9019 24.1112V18.1026C26.9019 17.1436 26.1175 16.3633 25.1532 16.3633ZM22.133 24.2303C20.4018 24.2303 18.9933 22.8292 18.9933 21.1069C18.9933 19.3849 20.4018 17.9838 22.133 17.9838C23.8644 17.9838 25.2729 19.3849 25.2729 21.1069C25.2729 22.829 23.8641 24.2303 22.133 24.2303ZM25.3738 18.6295C24.964 18.6295 24.6307 18.298 24.6307 17.8906C24.6307 17.4832 24.964 17.1516 25.3738 17.1516C25.7834 17.1516 26.1166 17.4832 26.1166 17.8906C26.1166 18.298 25.7834 18.6295 25.3738 18.6295Z" fill="#3E4347"/>
<path d="M22.1339 19.3041C21.1346 19.3041 20.3208 20.1131 20.3208 21.1072C20.3208 22.1017 21.1346 22.911 22.1339 22.911C23.1337 22.911 23.9468 22.1017 23.9468 21.1072C23.9468 20.1133 23.1335 19.3041 22.1339 19.3041Z" fill="#3E4347"/>
<path d="M22.1333 11C16.5371 11 12 15.5132 12 21.08C12 26.6468 16.5371 31.16 22.1333 31.16C27.7296 31.16 32.2667 26.6468 32.2667 21.08C32.2667 15.5132 27.7296 11 22.1333 11ZM28.2288 24.1115C28.2288 25.7985 26.8495 27.1706 25.1535 27.1706H19.1131C17.4174 27.1706 16.0378 25.7985 16.0378 24.1115V18.1029C16.0378 16.4161 17.4174 15.0438 19.1131 15.0438H25.1535C26.8495 15.0438 28.2288 16.4161 28.2288 18.1029V24.1115Z" fill="#3E4347"/>
</svg>
