<svg width="48" height="41" viewBox="0 0 48 41" fill="none" xmlns="http://www.w3.org/2000/svg">
<ellipse cx="24.0041" cy="20.3163" rx="23.0719" ry="20.1709" fill="white"/>
<path d="M24.0041 30.8051C29.8851 30.8051 34.6526 26.4703 34.6526 21.1231C34.6526 15.7758 29.8851 11.441 24.0041 11.441C18.123 11.441 13.3555 15.7758 13.3555 21.1231C13.3555 26.4703 18.123 30.8051 24.0041 30.8051Z" fill="#3E4347"/>
<path d="M30.5262 18.3992C30.0699 18.5831 29.579 18.7076 29.0642 18.7632C29.5898 18.4768 29.9932 18.0238 30.1836 17.483C29.6918 17.7483 29.1468 17.9408 28.5673 18.0445C28.1029 17.5949 27.4414 17.3139 26.7089 17.3139C25.3035 17.3139 24.1636 18.3503 24.1636 19.6282C24.1636 19.8096 24.1862 19.9861 24.2298 20.1556C22.1145 20.0591 20.2388 19.1379 18.9834 17.7373C18.7643 18.079 18.6387 18.4768 18.6387 18.9009C18.6387 19.7036 19.0883 20.4123 19.7709 20.8272C19.3539 20.8153 18.9612 20.7112 18.6182 20.5374C18.618 20.5472 18.618 20.5571 18.618 20.5667C18.618 21.6881 19.4957 22.6233 20.6599 22.8358C20.4465 22.889 20.2212 22.9171 19.9894 22.9171C19.825 22.9171 19.6658 22.9028 19.5105 22.8758C19.8343 23.7951 20.7741 24.4642 21.8882 24.483C21.0169 25.1038 19.9196 25.4737 18.7267 25.4737C18.5217 25.4737 18.3186 25.4628 18.1199 25.4412C19.2457 26.0981 20.5839 26.4811 22.0213 26.4811C26.703 26.4811 29.2633 22.9547 29.2633 19.8962C29.2633 19.7959 29.2609 19.696 29.2559 19.5969C29.7536 19.2707 30.1851 18.8633 30.5262 18.3992Z" fill="#F1F2F2"/>
</svg>
