<svg width="43" height="42" viewBox="0 0 43 42" fill="none" xmlns="http://www.w3.org/2000/svg">
<ellipse cx="21.5" cy="21" rx="21.5" ry="21" fill="#F1F2F2"/>
<path d="M21.9556 31.9202C27.5521 31.9202 32.0889 27.4072 32.0889 21.8402C32.0889 16.2732 27.5521 11.7602 21.9556 11.7602C16.3591 11.7602 11.8223 16.2732 11.8223 21.8402C11.8223 27.4072 16.3591 31.9202 21.9556 31.9202Z" fill="#3E4347"/>
<path d="M28.162 19.0044C27.7277 19.196 27.2606 19.3255 26.7707 19.3834C27.2709 19.0853 27.6548 18.6136 27.8359 18.0507C27.3679 18.3268 26.8493 18.5272 26.2978 18.6352C25.856 18.1671 25.2265 17.8746 24.5294 17.8746C23.192 17.8746 22.1072 18.9536 22.1072 20.284C22.1072 20.4728 22.1287 20.6566 22.1703 20.8331C20.1573 20.7327 18.3724 19.7735 17.1777 18.3153C16.9692 18.6711 16.8496 19.0853 16.8496 19.5268C16.8496 20.3625 17.2776 21.1003 17.9271 21.5323C17.5303 21.5199 17.1565 21.4115 16.8301 21.2306C16.8299 21.2408 16.8299 21.251 16.8299 21.2611C16.8299 22.4285 17.6652 23.4022 18.7731 23.6234C18.57 23.6788 18.3556 23.7081 18.135 23.7081C17.9786 23.7081 17.8271 23.6931 17.6793 23.6651C17.9875 24.6221 18.8818 25.3188 19.9419 25.3384C19.1128 25.9847 18.0686 26.3697 16.9335 26.3697C16.7384 26.3697 16.5451 26.3584 16.356 26.336C17.4273 27.0198 18.7008 27.4186 20.0686 27.4186C24.5238 27.4186 26.9602 23.7472 26.9602 20.563C26.9602 20.4586 26.9579 20.3546 26.9532 20.2515C27.4268 19.9118 27.8374 19.4876 28.162 19.0044Z" fill="#F1F2F2"/>
</svg>
